<svg width="229" height="536" viewBox="0 0 229 536" fill="none" xmlns="http://www.w3.org/2000/svg">
<g filter="url(#filter0_i)">
<path d="M158.02 56.8718C162.063 41.779 158.183 25.1168 146.367 13.4835C128.791 -3.82141 100.335 -3.42491 82.808 14.3759C77.224 20.0159 73.219 27.0235 71.194 34.6975C69.169 42.3715 69.195 50.4428 71.269 58.1037C61.683 55.6204 51.612 55.7094 42.072 58.3617C32.5318 61.0139 23.86 66.1357 16.9315 73.2101C-4.87486 95.358 -4.81756 130.756 17.0466 152.283C38.911 173.81 74.305 173.317 96.112 151.169C97.977 149.274 99.673 147.284 101.224 145.206L101.242 156.389L89.48 168.742L101.272 180.763L101.282 187.627L99.439 187.647C96.816 187.699 94.317 188.775 92.477 190.644C90.636 192.514 89.599 195.029 89.587 197.652L89.586 198.885C89.589 200.175 89.848 201.451 90.347 202.641C90.847 203.83 91.577 204.908 92.496 205.813C93.416 206.718 94.505 207.432 95.702 207.913C96.899 208.394 98.179 208.633 99.469 208.615L101.323 208.585L101.755 502.085L107.513 501.998L107.52 509.775C101.45 512.022 97.257 516.677 97.261 522.016C97.271 529.427 105.381 535.325 115.363 535.189C125.355 535.053 133.441 528.928 133.431 521.517C133.427 516.167 129.216 511.642 123.138 509.558L123.12 501.781L128.878 501.704L128.813 461.143L145.668 460.911L145.724 505.037L164.364 504.77L164.349 493.263L181.061 493.027L181.076 504.534L190.404 504.398L191.217 504.397L225.48 503.907L225.424 472.128L191.177 472.611L191.148 450.41L224.577 449.943L224.537 426.371L191.108 426.838L191.074 404.642L226.15 404.152L226.099 372.366L191.023 372.857L180.893 372.994L180.898 384.512L164.191 384.743L164.176 373.235L145.536 373.502L145.603 417.618L128.758 417.861L128.447 208.204L130.295 208.19C132.918 208.138 135.417 207.062 137.258 205.192C139.098 203.323 140.135 200.808 140.147 198.184L140.148 196.951C140.145 195.662 139.887 194.385 139.387 193.196C138.888 192.006 138.157 190.928 137.238 190.023C136.319 189.118 135.229 188.404 134.032 187.923C132.835 187.442 131.555 187.204 130.265 187.221L128.406 187.246L128.4 180.388L140.162 168.035L128.36 156.024L128.347 144.825C129.915 146.889 131.629 148.838 133.477 150.656C155.341 172.183 190.746 171.679 212.537 149.547C234.327 127.415 234.275 92.002 212.411 70.4746C197.656 55.9476 176.769 51.4613 158.02 56.8718ZM199.377 136.495C195.92 140.008 191.805 142.805 187.267 144.726C182.729 146.647 177.856 147.656 172.928 147.694C168 147.731 163.113 146.798 158.546 144.946C153.979 143.095 149.822 140.361 146.312 136.902C140.809 131.483 137.13 124.486 135.786 116.881L122.553 117.032L122.543 111.581C128.603 109.334 132.806 104.68 132.802 99.341C132.787 91.935 124.687 86.016 114.7 86.168C104.713 86.298 96.633 92.428 96.637 99.845C96.636 105.179 100.852 109.72 106.93 111.793L106.941 117.243L93.681 117.368C92.623 125.354 89.005 132.782 83.369 138.539C78.166 143.824 71.513 147.448 64.251 148.954C56.989 150.46 49.443 149.779 42.567 146.999C35.692 144.218 29.7943 139.463 25.6201 133.332C21.4459 127.202 19.1822 119.972 19.115 112.555C19.0477 105.139 21.1799 97.869 25.2422 91.664C29.3045 85.459 35.115 80.597 41.939 77.692C48.763 74.788 56.295 73.9707 63.583 75.344C70.871 76.718 77.589 80.221 82.887 85.411L99.175 68.8681C97.849 67.9717 96.6 66.9648 95.443 65.8583C91.346 61.8271 88.593 56.6285 87.563 50.9735C86.532 45.3184 87.274 39.4831 89.686 34.2656C92.098 29.0482 96.064 24.7032 101.039 21.8252C106.015 18.9471 111.758 17.6763 117.484 18.1868C123.209 18.6972 128.637 20.9638 133.025 24.6767C137.414 28.3896 140.548 33.3674 141.999 38.9294C143.45 44.4913 143.148 50.3658 141.133 55.7493C139.119 61.1328 135.49 65.7626 130.744 69.0054L145.862 83.891L145.899 83.843C149.356 80.331 153.47 77.534 158.007 75.613C162.545 73.6914 167.416 72.6827 172.344 72.6445C177.271 72.6062 182.158 73.539 186.724 75.39C191.291 77.24 195.448 79.973 198.959 83.43C202.473 86.886 205.271 91 207.194 95.538C209.117 100.076 210.127 104.948 210.166 109.876C210.204 114.805 209.272 119.692 207.42 124.26C205.569 128.827 202.836 132.985 199.377 136.495Z" fill="url(#paint0_linear)"/>
</g>
<defs>
<filter id="filter0_i" x="0.612549" y="0.76062" width="228.232" height="538.431" filterUnits="userSpaceOnUse" color-interpolation-filters="sRGB">
<feFlood flood-opacity="0" result="BackgroundImageFix"/>
<feBlend mode="normal" in="SourceGraphic" in2="BackgroundImageFix" result="shape"/>
<feColorMatrix in="SourceAlpha" type="matrix" values="0 0 0 0 0 0 0 0 0 0 0 0 0 0 0 0 0 0 127 0" result="hardAlpha"/>
<feOffset dy="8"/>
<feGaussianBlur stdDeviation="2"/>
<feComposite in2="hardAlpha" operator="arithmetic" k2="-1" k3="1"/>
<feColorMatrix type="matrix" values="0 0 0 0 0 0 0 0 0 0 0 0 0 0 0 0 0 0 0.5 0"/>
<feBlend mode="normal" in2="shape" result="effect1_innerShadow"/>
</filter>
<linearGradient id="paint0_linear" x1="-27.7995" y1="118.641" x2="293.418" y2="434.905" gradientUnits="userSpaceOnUse">
<stop stop-color="#FFE925"/>
<stop offset="1" stop-color="#A69923"/>
</linearGradient>
</defs>
</svg>
